<svg width="57" height="56" viewBox="0 0 57 56" fill="none" xmlns="http://www.w3.org/2000/svg">
<g filter="url(#filter0_d_11_32)">
<path d="M25.2812 12.0895C26.1422 9.30342 30.0859 9.30342 30.9468 12.0895L33.0621 16.6731L33.8699 18.5332C34.2896 19.4998 35.1858 20.1753 36.2307 20.3126L38.5049 20.6115L42.7323 21.2256C42.8751 21.2463 43.0212 21.2567 43.1655 21.2567C46.0351 21.2567 47.3467 24.8987 45.0663 26.6407L44.6976 26.9224L41.4738 29.9764L39.4798 32.073C38.8625 32.7221 38.5675 33.613 38.6755 34.5022L38.9998 37.1716L40.114 41.7552L40.1914 42.0055C41.0489 44.7804 37.8384 47.0198 35.5304 45.2567L31.5777 42.9831L29.6591 41.8304C28.7083 41.2591 27.5198 41.2591 26.569 41.8304L24.6504 42.9831L20.6976 45.2567C18.3897 47.0198 15.1792 44.7804 16.0367 42.0055L16.114 41.7552L17.2283 37.1716L17.5525 34.5022C17.6605 33.613 17.3656 32.7221 16.7483 32.073L14.7543 29.9764L11.5304 26.9224L11.1617 26.6407C8.88137 24.8987 10.1929 21.2567 13.0625 21.2567C13.2068 21.2567 13.3529 21.2463 13.4957 21.2256L17.7231 20.6115L19.9974 20.3126C21.0422 20.1753 21.9384 19.4998 22.3582 18.5332L23.166 16.6731L25.2812 12.0895Z" fill="url(#paint0_linear_11_32)"/>
</g>
<path d="M25.5173 13.3256C26.3065 10.7717 29.9215 10.7717 30.7108 13.3256L32.6497 17.5272L33.3338 19.1025C33.7536 20.0691 34.6498 20.7445 35.6946 20.8819L37.639 21.1374L41.5124 21.7001C41.6445 21.7192 41.7778 21.7289 41.9112 21.7289C44.5653 21.7289 45.7047 25.0973 43.5956 26.7085L43.3156 26.9224L40.3605 29.7219L38.6139 31.5584C37.9966 32.2074 37.7016 33.0984 37.8096 33.9876L38.0926 36.3175L39.114 40.5191L39.1849 40.7486C39.971 43.2922 37.028 45.3451 34.9124 43.7289L31.289 41.6447L29.6591 40.6654C28.7083 40.0941 27.5198 40.0941 26.569 40.6654L24.939 41.6447L21.3156 43.7289C19.2 45.3451 16.2571 43.2922 17.0431 40.7486L17.114 40.5191L18.1354 36.3175L18.4184 33.9876C18.5265 33.0984 18.2315 32.2074 17.6142 31.5584L15.8676 29.7219L12.9124 26.9224L12.6324 26.7085C10.5233 25.0973 11.6627 21.7289 14.3168 21.7289C14.4503 21.7289 14.5836 21.7192 14.7156 21.7001L18.589 21.1374L20.5334 20.8819C21.5783 20.7445 22.4744 20.0691 22.8942 19.1025L23.5783 17.5272L25.5173 13.3256Z" fill="url(#paint1_linear_11_32)" fill-opacity="0.2"/>
<defs>
<filter id="filter0_d_11_32" x="0" y="0" width="56.228" height="55.8828" filterUnits="userSpaceOnUse" color-interpolation-filters="sRGB">
<feFlood flood-opacity="0" result="BackgroundImageFix"/>
<feColorMatrix in="SourceAlpha" type="matrix" values="0 0 0 0 0 0 0 0 0 0 0 0 0 0 0 0 0 0 127 0" result="hardAlpha"/>
<feOffset/>
<feGaussianBlur stdDeviation="5"/>
<feComposite in2="hardAlpha" operator="out"/>
<feColorMatrix type="matrix" values="0 0 0 0 0.952941 0 0 0 0 0.572549 0 0 0 0 0.0509804 0 0 0 1 0"/>
<feBlend mode="normal" in2="BackgroundImageFix" result="effect1_dropShadow_11_32"/>
<feBlend mode="normal" in="SourceGraphic" in2="effect1_dropShadow_11_32" result="shape"/>
</filter>
<linearGradient id="paint0_linear_11_32" x1="24.401" y1="12.8075" x2="33.6464" y2="49.0135" gradientUnits="userSpaceOnUse">
<stop stop-color="#FBEF9B"/>
<stop offset="1" stop-color="#EE8604"/>
</linearGradient>
<linearGradient id="paint1_linear_11_32" x1="23.6194" y1="19.8463" x2="35.4012" y2="42.2566" gradientUnits="userSpaceOnUse">
<stop stop-color="#FFE042"/>
<stop offset="1" stop-color="#EDAC21"/>
</linearGradient>
</defs>
</svg>
